<svg id="Capa_1" data-name="Capa 1" xmlns="http://www.w3.org/2000/svg" viewBox="0 0 32.55 48.37"><defs><style>.cls-1{fill:#0d9094;}</style></defs><title>logo3</title><path class="cls-1" d="M58.66,28.62c-9.89,0-19.63-2.1-21.45,12H45s1.22-4.06,5.12-4.92C53.19,35,63.42,34.7,61,45c0,0-1.65,5.13-14.06,5.77-15.32.78-14.11,28.16,7.34,26,14.88-.89,14.9-10.7,14.9-10.7V38.37S68.54,28.62,58.66,28.62Zm1.65,39.11c-2.89,4.29-8.75,4-8.75,4-7.83.23-13-12.38-.79-15.13,8.89-2.54,11.43-5.19,11.43-5.19S62.33,64.88,60.31,67.73Z" transform="translate(-36.62 -28.51)"/></svg>